# xmcd CD database file
#
# Track frame offsets:
#	150
#	17766
#	34935
#	53411
#	68807
#	86897
#	104903
#	123208
#	142732
#	162602
#	180960
#	198603
#	216136
#	231814
#	249935
#	265782
#	283807
#
# Disc length: 4019 seconds
#
# Revision: 0
# Processed by: cddbd v1.5.2PL0 Copyright (c) Steve Scherf et al.
# Submitted via: ACXtractor (MTCDDB.DLL V2003.12.21)
#
DISCID=f20fb111
DTITLE=By Miti2006 - Hot Wave Top20
DYEAR=2007
DGENRE=Rock
TTITLE0=เซ็ง
TTITLE1=ซื้อกุหลาบให้ตัวเอง
TTITLE2=ง่ายง่าย
TTITLE3=Sexy Girl
TTITLE4=เพราะว่ารัก
TTITLE5=ปากไม่ตรงกับใจ
TTITLE6=ผิดสัญญา
TTITLE7=ไม่มีวันอยู่แล้ว
TTITLE8=ดูแต่ตา
TTITLE9=ช้าไปไหมเธอ
TTITLE10=โทรมาว่ารัก
TTITLE11=รู้สึกดี
TTITLE12=จี๊ด
TTITLE13=วูบหนึ่งในคืนเหงา
TTITLE14=ให้ใครมารักหน่อย
TTITLE15=รางวัล
TTITLE16=เด็กมีปัญญา
EXTD=23-5-2007 ID3G:  17 YEAR: 2007
EXTT0=
EXTT1=
EXTT2=
EXTT3=
EXTT4=
EXTT5=
EXTT6=
EXTT7=
EXTT8=
EXTT9=
EXTT10=
EXTT11=
EXTT12=
EXTT13=
EXTT14=
EXTT15=
EXTT16=
PLAYORDER=
